<?xml version="1.0" encoding="UTF-8"?>
<svg viewBox="0 0 246.04109 411.77319" xmlns="http://www.w3.org/2000/svg" xmlns:xlink="http://www.w3.org/1999/xlink">
 <defs>
  <filter id="af">
   <feGaussianBlur stdDeviation="1.2574"/>
  </filter>
  <filter id="ae">
   <feGaussianBlur stdDeviation="2.2219"/>
  </filter>
  <filter id="ad">
   <feGaussianBlur stdDeviation="3.7762"/>
  </filter>
  <filter id="ac">
   <feGaussianBlur stdDeviation="2.6612"/>
  </filter>
  <filter id="ab">
   <feGaussianBlur stdDeviation="2.5959"/>
  </filter>
  <filter id="i" x="-1.0254" y="-.22722" width="3.0508" height="1.4544">
   <feGaussianBlur stdDeviation="2.3794"/>
  </filter>
  <filter id="h" x="-.3929" y="-.12704" width="1.7858" height="1.2541">
   <feGaussianBlur stdDeviation="1.32"/>
  </filter>
  <filter id="ag" x="-.04092" y="-.29954" width="1.0818" height="1.5991">
   <feGaussianBlur stdDeviation=".8768"/>
  </filter>
  <filter id="b" x="-.34533" y="-.111" width="1.6907" height="1.222">
   <feGaussianBlur stdDeviation="1.2205"/>
  </filter>
  <linearGradient id="e">
   <stop stop-color="#162d50" offset="0"/>
   <stop stop-color="#17161c" offset="1"/>
  </linearGradient>
  <linearGradient id="f">
   <stop stop-color="#fff" offset="0"/>
   <stop stop-color="#fff" stop-opacity="0" offset="1"/>
  </linearGradient>
  <linearGradient id="d">
   <stop stop-color="#63753b" offset="0"/>
   <stop stop-color="#3e6516" offset=".1322"/>
   <stop stop-color="#44661a" offset=".4087"/>
   <stop stop-color="#3c6416" offset=".8603"/>
   <stop stop-color="#838e54" offset="1"/>
  </linearGradient>
  <linearGradient id="g">
   <stop stop-color="#afe" offset="0"/>
   <stop stop-color="#fff" offset=".3678"/>
   <stop stop-color="#afe" offset="1"/>
  </linearGradient>
  <linearGradient id="aa" x1="116.96" x2="163.95" gradientUnits="userSpaceOnUse">
   <stop stop-color="#916c49" offset="0"/>
   <stop stop-color="#ddbd96" offset=".3822"/>
   <stop stop-color="#916c49" offset="1"/>
  </linearGradient>
  <linearGradient id="z" x1="115.71" x2="165.01" y1="92.413" y2="91.414" gradientUnits="userSpaceOnUse">
   <stop stop-color="#b3b3b3" stop-opacity=".1" offset="0"/>
   <stop stop-color="#fff" stop-opacity=".5816" offset=".452"/>
   <stop stop-color="#ccc" stop-opacity=".1" offset="1"/>
  </linearGradient>
  <linearGradient id="y" x1="137.21" x2="139.53" y1="403.63" y2="75.74" gradientUnits="userSpaceOnUse">
   <stop stop-color="#eee" offset="0"/>
   <stop stop-color="#e6e6e6" stop-opacity="0" offset="1"/>
  </linearGradient>
  <linearGradient id="x" x1="2297.8" x2="2556.5" y1="1144.5" y2="271.78" gradientTransform="matrix(1.3218 0 0 1.188 -2979.7 -839.67)" gradientUnits="userSpaceOnUse">
   <stop stop-color="#9cb926" stop-opacity=".1632" offset="0"/>
   <stop stop-color="#85a706" stop-opacity=".7364" offset=".1844"/>
   <stop stop-color="#acbb17" stop-opacity=".4851" offset=".3688"/>
   <stop stop-color="#fff" stop-opacity="0" offset=".5"/>
   <stop stop-color="#acbb17" stop-opacity=".6211" offset=".6383"/>
   <stop stop-color="#c3b914" offset="1"/>
  </linearGradient>
  <linearGradient id="w" x1="77.351" x2="207.42" gradientUnits="userSpaceOnUse">
   <stop stop-color="#777" offset="0"/>
   <stop stop-color="#ccc" offset=".25"/>
   <stop stop-color="#fff" offset=".5"/>
   <stop stop-color="#777" offset=".7653"/>
   <stop stop-color="#ccc" offset="1"/>
  </linearGradient>
  <linearGradient id="v" x1="134.68" x2="136.65" y1="403.77" y2="361.73" gradientUnits="userSpaceOnUse">
   <stop stop-color="#ccc" offset="0"/>
   <stop stop-color="#ccc" stop-opacity="0" offset="1"/>
  </linearGradient>
  <linearGradient id="s" x1="404.09" x2="538.72" y1="654.14" y2="612.15" gradientUnits="userSpaceOnUse">
   <stop stop-color="#9a9b73" offset="0"/>
   <stop stop-color="#968760" offset=".6299"/>
   <stop stop-color="#9a9b73" offset="1"/>
  </linearGradient>
  <linearGradient id="r" x1="487.13" x2="532" y1="600.7" y2="516.41" gradientUnits="userSpaceOnUse">
   <stop stop-color="#63753b" offset="0"/>
   <stop stop-color="#3e6516" offset=".1322"/>
   <stop stop-color="#44661a" offset=".4087"/>
   <stop stop-color="#3c6416" offset=".7807"/>
   <stop stop-color="#838e54" offset="1"/>
  </linearGradient>
  <linearGradient id="p" x1="398.92" x2="389.37" y1="313.42" y2="372.31" gradientTransform="matrix(.04336 .92864 -.92864 .04336 852.62 190.79)" gradientUnits="userSpaceOnUse">
   <stop stop-color="#63753b" offset="0"/>
   <stop stop-color="#3e6516" offset=".2355"/>
   <stop stop-color="#44661a" offset=".495"/>
   <stop stop-color="#3c6416" offset=".8603"/>
   <stop stop-color="#838e54" offset="1"/>
  </linearGradient>
  <linearGradient id="u" x1="132.61" x2="134.84" y1="357.09" y2="371.02" gradientUnits="userSpaceOnUse" xlink:href="#f"/>
  <linearGradient id="t" x1="115.06" x2="166.49" gradientUnits="userSpaceOnUse" xlink:href="#g"/>
  <linearGradient id="q" x1="409.36" x2="475.01" y1="547.64" y2="626.28" gradientUnits="userSpaceOnUse" xlink:href="#d"/>
  <linearGradient id="o" x1="370.71" x2="436.36" y1="309.05" y2="387.69" gradientTransform="matrix(-.5531 -.38001 -.38001 .5531 920.87 567.05)" gradientUnits="userSpaceOnUse" xlink:href="#d"/>
  <linearGradient id="n" x1="539.32" x2="582.31" y1="347.04" y2="241.08" gradientTransform="matrix(.93313 -.35953 -.35953 -.93313 121.39 1152.6)" gradientUnits="userSpaceOnUse" xlink:href="#d"/>
  <radialGradient id="m" cx="2611.5" cy="971.13" r="85.047" gradientTransform="matrix(2.5259 -.26636 1.3521 5.9611 -7722.2 -4825.4)" gradientUnits="userSpaceOnUse">
   <stop stop-color="#cca505" offset="0"/>
   <stop stop-color="#ebce08" offset=".1844"/>
   <stop stop-color="#fffe2b" offset=".3688"/>
   <stop stop-color="#f1da08" offset=".5"/>
   <stop stop-color="#fde50a" offset=".6383"/>
   <stop stop-color="#e6b914" offset="1"/>
  </radialGradient>
  <radialGradient id="l" cx="1076.2" cy="219.79" r="80.63" gradientTransform="matrix(1.1984 .03306 -.03792 1.3746 -1144.3 -82.031)" gradientUnits="userSpaceOnUse">
   <stop stop-color="#f4e3d7" stop-opacity="0" offset="0"/>
   <stop stop-color="#a46b17" stop-opacity="0" offset=".5"/>
   <stop stop-color="#3a2205" offset="1"/>
  </radialGradient>
  <radialGradient id="k" cx="1147" cy="83.403" r="51.844" gradientTransform="matrix(.81094 0 0 .64281 -733.29 72.941)" gradientUnits="userSpaceOnUse" xlink:href="#g"/>
  <radialGradient id="j" cx="363.8" cy="800.82" r="28.275" gradientTransform="matrix(.53049 -.14693 .2008 .72501 -150.19 -122.87)" gradientUnits="userSpaceOnUse" xlink:href="#e"/>
  <radialGradient id="c" cx="363.8" cy="800.82" r="28.275" gradientTransform="matrix(1 0 0 1.3667 0 -293.63)" gradientUnits="userSpaceOnUse" xlink:href="#e"/>
  <radialGradient id="a" cx="350.14" cy="804.59" r="7.1705" gradientTransform="matrix(1 0 0 2.2487 0 -1004.7)" gradientUnits="userSpaceOnUse" xlink:href="#f"/>
 </defs>
 <g transform="translate(-40.656 -28.75)">
  <path d="m163.9375,47.8125-46.96875,1.65625 1.25,13.21875h-.75c-2.3333,0-4.21875,1.88542-4.21875,4.21875v1.9375c0,2.10687 1.5475,3.83913 3.5625,4.15625-.25448,6.48504-.84411,18.27496-1.9375,30.9375h-.5625c-1.2132,14.4279-3.0982,30.19589-6,40.90625-1.24172,4.5828-2.8435,8.71125-4.71875,12.5625-.11206.21888-.2301.43917-.34375.65625-.4483.85616-.9022,1.70101-1.375,2.53125-.4754.83464-.97105,1.65674-1.46875,2.46875-.38874.6345-.78643,1.28361-1.1875,1.90625-.62086.96401-1.25933,1.90368-1.90625,2.84375-.55728.81026-1.11398,1.60882-1.6875,2.40625-1.08083,1.50716-2.18647,2.98933-3.3125,4.46875-.81636,1.07327-1.63795,2.14631-2.46875,3.21875-1.25387,1.61731-2.5153,3.23098-3.78125,4.875-.14063.18281-.26563.37911-.40625.5625-1.14773,1.49539-2.30032,3.0122-3.4375,4.5625-.24259.33097-.47718.66584-.71875,1-.47893.66202-.96334,1.29227-1.4375,1.96875-.035.05-.05875.10617-.09375.15625-.0049.007.0049.0242 0,.0312-.53335.76409-1.06868,1.52764-1.59375,2.3125-.44752.66828-.90364,1.34599-1.34375,2.03125-.22501.34045-.43804.68331-.65625,1.03125-.07726.12305-.14177.25135-.21875.375l-.4375.71875c-.218.3563-.44065.70105-.65625,1.0625l-.1875.3125c-.88653,1.49609-1.72524,3.03029-2.5625,4.625-.09128.16868-.19276.32896-.28125.5-.079.15267-.14025.31509-.21875.46875-.14321.28049-.29461.5628-.4375.84375-.20705.41494-.42183.82767-.625,1.25l-.1875.40625c-5.6541,11.44068-9.89634,25.63326-10.78125,45.3125-1.4256,31.70536 22.15625,92.59375 22.15625,92.59375s-.23935.47491-.40625.84375v.0312l.09375.0625-.25.5625c-.99893,1.83939-1.84137,3.68675-2.21875,5.21875-.06735.27336-.13559.5742-.1875.875-.15146.44034-.27405.85752-.40625,1.28125-.41696-.31096-.80213-.61806-1.125-.9375 .1269.92413.21875,1.625.21875,1.625l.59375.40625c-.13494.49191-.25833.9757-.34375,1.40625-.826,4.16309-.46875,12.71885-.46875,12.71885s1.9806,1.54871 5.59375,3.75c-2.48323-1.06795-4.37712-2.20253-5.59375-3.40625 .1269.92413.21875,1.625.21875,1.625s3.96881,3.09341 13.46875,6.21875c12.15649,6.03148 31.68623,13.02054 55.8125,12.09375 6.82217-.26207 12.95429-.91003 18.46875-1.84375 1.10289-.18674 2.19727-.38647 3.25-.59375 10.52732-2.07276 18.56343-5.12908 24.46875-8.09375 .59053-.29647 1.13925-.58123 1.6875-.875 3.37375-1.80778 5.91153-3.5177 7.78125-4.9375 .82999-.38706 1.28125-.625 1.28125-.625s.0667-.32227.0937-.46875c1.72808-1.42715 2.59375-2.375 2.59375-2.375s.36948-2.38543.625-5.34375c.0376-.44005.0638-.85273.0937-1.3125 .0559-.84227.11194-1.67928.125-2.53125-.00095-.0436.001-.0816 0-.125 .017-1.38654-.0434-2.72992-.21875-3.875-.0493-.32166-.0871-.65104-.15625-.9375-.71276-2.95228-4.13359-7.6938-4.5625-8.28125l-.15625-.21875c0,0 2.90228-9.0434 6.46875-22.0625l.0312-.0312c.0165-.0601.046-.12729.0625-.1875 .718-2.62388 1.4366-5.41237 2.1875-8.3125 .6745-2.60472 1.35825-5.32913 2.03125-8.09375 .0912-.37452.19025-.74816.28125-1.125 .2801-1.16221.56775-2.34995.84375-3.53125 .474-2.02723.95215-4.09021 1.40625-6.15625l.375-1.71875c.0335-.15579.0603-.31285.0937-.46875 .4439-2.07077.87035-4.13891 1.28125-6.21875 .0841-.42685.1674-.85457.25-1.28125 .0139-.0722.0173-.14653.0312-.21875 .2428-1.25936.49175-2.52691.71875-3.78125 .072-.39749.14845-.79084.21875-1.1875 .1651-.93265.31395-1.85458.46875-2.78125 .1199-.71544.23045-1.41419.34375-2.125 .0957-.60165.19055-1.18352.28125-1.78125 .1545-1.01512.2983-2.02963.4375-3.03125 .2162-1.56037.41835-3.10585.59375-4.625 .004-.0313-.004-.0625 0-.0937 .13902-1.20942.26336-2.38656.375-3.5625 .0317-.33776.0645-.66517.0937-1 .0774-.8861.12866-1.73368.1875-2.59375 .003-.0425-.003-.0826 0-.125 .037-.54868.0954-1.11491.125-1.65625 .0309-.56543.0391-1.10028.0625-1.65625 .00086-.0213-.00084-.0413 0-.0625 .0344-.82809.0814-1.67074.0937-2.46875 .004-.26855-.002-.51567 0-.78125 .007-1.07556.002-2.13777-.0312-3.15625-.0406-1.24596-.11688-2.45366-.1875-3.65625-.0194-.32992-.041-.67406-.0625-1-.0007-.0106.0007-.0207 0-.0312-.006-.0914.006-.19024 0-.28125-.0139-.20316-.0479-.39188-.0625-.59375-.0659-.90299-.1362-1.77748-.21875-2.65625-.0452-.48499-.0745-.99069-.125-1.46875-.0214-.20218-.0402-.39281-.0625-.59375-.11694-1.05559-.26562-2.10408-.40625-3.125-.0353-.25615-.057-.5273-.0937-.78125-.0448-.31005-.10932-.59942-.15625-.90625-.0855-.55762-.15755-1.10888-.25-1.65625-.0836-.49521-.19207-.98177-.28125-1.46875-.0152-.0831-.0159-.16717-.0312-.25-.0141-.0762-.0483-.14275-.0625-.21875-.24641-1.31272-.49581-2.58912-.78125-3.84375-.0215-.095-.0408-.18655-.0625-.28125-.17742-.76961-.37107-1.53265-.5625-2.28125-.11655-.45604-.22217-.8953-.34375-1.34375-.0692-.25582-.14796-.49658-.21875-.75-.0179-.0641-.0445-.12352-.0625-.1875-.0379-.13475-.0553-.27217-.0937-.40625-.0843-.29374-.1636-.5845-.25-.875l-.1875-.625c-.0877-.28764-.16021-.59042-.25-.875-.11504-.36464-.25548-.70374-.375-1.0625l-.0625-.1875c-.0738-.21963-.14345-.43868-.21875-.65625-.10901-.3206-.23215-.6209-.34375-.9375-.0364-.10136-.057-.21155-.0937-.3125-.12982-.36424-.27307-.70346-.40625-1.0625-.008-.0219-.0231-.0406-.0312-.0625-.1096-.28994-.20127-.58805-.3125-.875-.012-.0312-.0193-.0626-.0312-.0937-.1162-.29904-.22618-.61016-.34375-.90625-.10914-.27459-.23366-.54075-.34375-.8125-.0304-.0744-.0632-.14458-.0937-.21875-.0816-.19814-.16736-.3972-.25-.59375-.0678-.16343-.11908-.33765-.1875-.5-.15028-.35157-.31533-.68467-.46875-1.03125-.12241-.27909-.21829-.56801-.34375-.84375-.0719-.15818-.14615-.31159-.21875-.46875-.0139-.0301-.0173-.0637-.0312-.0937-.0595-.12836-.12745-.24728-.1875-.375-.0299-.0639-.0637-.12381-.0937-.1875-.0896-.1899-.19078-.37408-.28125-.5625-.0448-.0927-.0799-.18885-.125-.28125-.31722-.65501-.64097-1.33101-.96875-1.96875-.0174-.0339-.045-.0599-.0625-.0937-.23284-.45169-.48093-.86908-.71875-1.3125-.15099-.28138-.28459-.56559-.4375-.84375-.0787-.14313-.13957-.29521-.21875-.4375-.0293-.0526-.0644-.10377-.0937-.15625-.0639-.11433-.12331-.22995-.1875-.34375-.0184-.0326-.0458-.0605-.0625-.0937-.004-.008.004-.0234 0-.0312-.0374-.066-.0875-.12164-.125-.1875-.0795-.13957-.17032-.26735-.25-.40625l-.34375-.59375-.0312-.0625c-.188-.32078-.37214-.65208-.5625-.96875l-.5625-.9375c-.2483-.40301-.49899-.79164-.75-1.1875-.0932-.14695-.18758-.29139-.28125-.4375-.30193-.47113-.59978-.9435-.90625-1.40625-.2006-.3025-.39135-.60715-.59375-.90625-.0454-.0673-.11058-.1203-.15625-.1875l-.0625-.0937c-.39323-.57714-.78967-1.15438-1.1875-1.71875-.005-.007.005-.0244 0-.0312-.6235-.88332-1.2394-1.73595-1.875-2.59375-.0528-.0714-.10335-.14749-.15625-.21875l-.0937-.125-.0937-.125c-.6351-.852-1.26275-1.66876-1.90625-2.5-.4991-.6439-.99551-1.27238-1.5-1.90625-.72475-.91483-1.4594-1.82085-2.1875-2.71875l-.0937-.125c-.15278-.18826-.31595-.37483-.46875-.5625-.17942-.22034-.35185-.43664-.53125-.65625l-.125-.15625c-.0518-.0634-.10442-.12414-.15625-.1875-.79949-.97755-1.58021-1.93798-2.375-2.90625-.3434-.41843-.68945-.83233-1.03125-1.25-.0373-.0456-.0877-.0794-.125-.125-.28982-.35985-.55151-.73498-.84375-1.09375-.7617-.93602-1.53385-1.87261-2.28125-2.8125l-.125-.15625c-.0686-.0864-.1503-.16353-.21875-.25-.86866-1.09717-1.72197-2.19899-2.5625-3.3125-.0367-.0486-.0571-.10762-.0937-.15625l-.1875-.25c-.32152-.42891-.65237-.84866-.96875-1.28125-.0842-.11432-.16621-.22921-.25-.34375-.10941-.15067-.23501-.28632-.34375-.4375-.0354-.0488-.0584-.10737-.0937-.15625-.13131-.18314-.24472-.37856-.375-.5625-.12043-.17003-.25548-.32925-.375-.5-.27525-.39324-.54231-.79013-.8125-1.1875-.5356-.78727-1.0487-1.60021-1.5625-2.40625l-.0312-.0312c-.3981-.62523-.77265-1.26792-1.15625-1.90625-.1754-.29218-.35915-.57984-.53125-.875-.0188-.0323-.0438-.0615-.0625-.0937 16.6597-4.5251 28.6875-17.26456 28.6875-32.28125l-1.21875-8.09375c-4.54165-15.0657-21.0707-25.71919-40.1568-25.96935-.3368-8.39516-.4659-15.92975-.5-20.96875 .25941-.03306.50731-.0791.75-.15625 1.4562-.46288 2.55496-1.6955 2.84375-3.21875 .0481-.25388.0937-.51256.0937-.78125v-1.9375c0-2.33332-1.88545-4.21875-4.21875-4.21875h-1.375l1.21875-14.875zm1.53125,53.78125c14.6344.37028 27.2577,8.57015 30.75,20.15625l.9375,6.28125c0,11.87235-9.648,21.88989-22.9375,25.25-.23789-.53565-.46102-1.0785-.6875-1.625l-.0312-.0625-.0312-.0625-.28125-.6875-.0625-.15625c-.4773-1.20486-.92795-2.4196-1.34375-3.6875l-.0937-.28125c-.0587-.18189-.0989-.37923-.15625-.5625-.007-.0224-.0243-.0401-.0312-.0625-.26436-.84767-.51576-1.7154-.75-2.59375-.2403-.90103-.4655-1.84573-.6875-2.8125l-.0937-.40625c-.24888-1.12137-.4901-2.30106-.71875-3.5-.12339-.64347-.25804-1.27473-.375-1.9375-.007-.0409-.0241-.084-.0312-.125-.10899-.62089-.20898-1.27003-.3125-1.90625-.11303-.69563-.20584-1.38156-.3125-2.09375-.041-.27434-.085-.53586-.125-.8125-.18285-1.25657-.33567-2.54633-.5-3.84375-.0747-.59287-.14774-1.18121-.21875-1.78125-.0139-.11729-.0487-.22621-.0625-.34375-.17746-1.51749-.34489-3.04229-.5-4.59375-.0959-.95404-.16223-1.91309-.25-2.875-.07-.77088-.15365-1.53836-.21875-2.3125-.074-.87607-.15091-1.74754-.21875-2.625-.0686-.88844-.12493-1.76914-.1875-2.65625-.12684-1.80098-.23974-3.59477-.34375-5.375h-.0312c-.037-.63253-.0595-1.27855-.0937-1.90625z" filter="url(#ad)" opacity=".5"/>
  <path d="m163.9375,47.8125-46.96875,1.65625 1.25,13.21875h-.75c-2.3333,0-4.21875,1.88542-4.21875,4.21875v1.9375c0,2.10687 1.5475,3.83913 3.5625,4.15625-.25448,6.48504-.84411,18.27496-1.9375,30.9375h-.5625c-1.2132,14.4279-3.0982,30.19589-6,40.90625-1.24172,4.5828-2.8435,8.71125-4.71875,12.5625-.11206.21888-.2301.43917-.34375.65625-.4483.85616-.9022,1.70101-1.375,2.53125-.4754.83464-.97105,1.65674-1.46875,2.46875-.38874.6345-.78643,1.28361-1.1875,1.90625-.62086.96401-1.25933,1.90368-1.90625,2.84375-.55728.81026-1.11398,1.60882-1.6875,2.40625-1.08083,1.50716-2.18647,2.98933-3.3125,4.46875-.81636,1.07327-1.63795,2.14631-2.46875,3.21875-1.25387,1.61731-2.5153,3.23098-3.78125,4.875-.14063.18281-.26563.37911-.40625.5625-1.14773,1.49539-2.30032,3.0122-3.4375,4.5625-.24259.33097-.47718.66584-.71875,1-.47893.66202-.96334,1.29227-1.4375,1.96875-.035.05-.05875.10617-.09375.15625-.0049.007.0049.0242 0,.0312-.53335.76409-1.06868,1.52764-1.59375,2.3125-.44752.66828-.90364,1.34599-1.34375,2.03125-.22501.34045-.43804.68331-.65625,1.03125-.07726.12305-.14177.25135-.21875.375l-.4375.71875c-.218.3563-.44065.70105-.65625,1.0625l-.1875.3125c-.88653,1.49609-1.72524,3.03029-2.5625,4.625-.09128.16868-.19276.32896-.28125.5-.079.15267-.14025.31509-.21875.46875-.14321.28049-.29461.5628-.4375.84375-.20705.41494-.42183.82767-.625,1.25l-.1875.40625c-5.6541,11.44068-9.89634,25.63326-10.78125,45.3125-1.4256,31.70536 22.15625,92.59375 22.15625,92.59375s-.23935.47491-.40625.84375v.0312l.09375.0625-.25.5625c-.99893,1.83939-1.84137,3.68675-2.21875,5.21875-.06735.27336-.13559.5742-.1875.875-.15146.44034-.27405.85752-.40625,1.28125-.41696-.31096-.80213-.61806-1.125-.9375 .1269.92413.21875,1.625.21875,1.625l.59375.40625c-.13494.49191-.25833.9757-.34375,1.40625-.826,4.16309-.46875,12.71885-.46875,12.71885s1.9806,1.54871 5.59375,3.75c-2.48323-1.06795-4.37712-2.20253-5.59375-3.40625 .1269.92413.21875,1.625.21875,1.625s3.96881,3.09341 13.46875,6.21875c12.15649,6.03148 31.68623,13.02054 55.8125,12.09375 6.82217-.26207 12.95429-.91003 18.46875-1.84375 1.10289-.18674 2.19727-.38647 3.25-.59375 10.52732-2.07276 18.56343-5.12908 24.46875-8.09375 .59053-.29647 1.13925-.58123 1.6875-.875 3.37375-1.80778 5.91153-3.5177 7.78125-4.9375 .82999-.38706 1.28125-.625 1.28125-.625s.0667-.32227.0937-.46875c1.72808-1.42715 2.59375-2.375 2.59375-2.375s.36948-2.38543.625-5.34375c.0376-.44005.0638-.85273.0937-1.3125 .0559-.84227.11194-1.67928.125-2.53125-.00095-.0436.001-.0816 0-.125 .017-1.38654-.0434-2.72992-.21875-3.875-.0493-.32166-.0871-.65104-.15625-.9375-.71276-2.95228-4.13359-7.6938-4.5625-8.28125l-.15625-.21875c0,0 2.90228-9.0434 6.46875-22.0625l.0312-.0312c.0165-.0601.046-.12729.0625-.1875 .718-2.62388 1.4366-5.41237 2.1875-8.3125 .6745-2.60472 1.35825-5.32913 2.03125-8.09375 .0912-.37452.19025-.74816.28125-1.125 .2801-1.16221.56775-2.34995.84375-3.53125 .474-2.02723.95215-4.09021 1.40625-6.15625l.375-1.71875c.0335-.15579.0603-.31285.0937-.46875 .4439-2.07077.87035-4.13891 1.28125-6.21875 .0841-.42685.1674-.85457.25-1.28125 .0139-.0722.0173-.14653.0312-.21875 .2428-1.25936.49175-2.52691.71875-3.78125 .072-.39749.14845-.79084.21875-1.1875 .1651-.93265.31395-1.85458.46875-2.78125 .1199-.71544.23045-1.41419.34375-2.125 .0957-.60165.19055-1.18352.28125-1.78125 .1545-1.01512.2983-2.02963.4375-3.03125 .2162-1.56037.41835-3.10585.59375-4.625 .004-.0313-.004-.0625 0-.0937 .13902-1.20942.26336-2.38656.375-3.5625 .0317-.33776.0645-.66517.0937-1 .0774-.8861.12866-1.73368.1875-2.59375 .003-.0425-.003-.0826 0-.125 .037-.54868.0954-1.11491.125-1.65625 .0309-.56543.0391-1.10028.0625-1.65625 .00086-.0213-.00084-.0413 0-.0625 .0344-.82809.0814-1.67074.0937-2.46875 .004-.26855-.002-.51567 0-.78125 .007-1.07556.002-2.13777-.0312-3.15625-.0406-1.24596-.11688-2.45366-.1875-3.65625-.0194-.32992-.041-.67406-.0625-1-.0007-.0106.0007-.0207 0-.0312-.006-.0914.006-.19024 0-.28125-.0139-.20316-.0479-.39188-.0625-.59375-.0659-.90299-.1362-1.77748-.21875-2.65625-.0452-.48499-.0745-.99069-.125-1.46875-.0214-.20218-.0402-.39281-.0625-.59375-.11694-1.05559-.26562-2.10408-.40625-3.125-.0353-.25615-.057-.5273-.0937-.78125-.0448-.31005-.10932-.59942-.15625-.90625-.0855-.55762-.15755-1.10888-.25-1.65625-.0836-.49521-.19207-.98177-.28125-1.46875-.0152-.0831-.0159-.16717-.0312-.25-.0141-.0762-.0483-.14275-.0625-.21875-.24641-1.31272-.49581-2.58912-.78125-3.84375-.0215-.095-.0408-.18655-.0625-.28125-.17742-.76961-.37107-1.53265-.5625-2.28125-.11655-.45604-.22217-.8953-.34375-1.34375-.0692-.25582-.14796-.49658-.21875-.75-.0179-.0641-.0445-.12352-.0625-.1875-.0379-.13475-.0553-.27217-.0937-.40625-.0843-.29374-.1636-.5845-.25-.875l-.1875-.625c-.0877-.28764-.16021-.59042-.25-.875-.11504-.36464-.25548-.70374-.375-1.0625l-.0625-.1875c-.0738-.21963-.14345-.43868-.21875-.65625-.10901-.3206-.23215-.6209-.34375-.9375-.0364-.10136-.057-.21155-.0937-.3125-.12982-.36424-.27307-.70346-.40625-1.0625-.008-.0219-.0231-.0406-.0312-.0625-.1096-.28994-.20127-.58805-.3125-.875-.012-.0312-.0193-.0626-.0312-.0937-.1162-.29904-.22618-.61016-.34375-.90625-.10914-.27459-.23366-.54075-.34375-.8125-.0304-.0744-.0632-.14458-.0937-.21875-.0816-.19814-.16736-.3972-.25-.59375-.0678-.16343-.11908-.33765-.1875-.5-.15028-.35157-.31533-.68467-.46875-1.03125-.12241-.27909-.21829-.56801-.34375-.84375-.0719-.15818-.14615-.31159-.21875-.46875-.0139-.0301-.0173-.0637-.0312-.0937-.0595-.12836-.12745-.24728-.1875-.375-.0299-.0639-.0637-.12381-.0937-.1875-.0896-.1899-.19078-.37408-.28125-.5625-.0448-.0927-.0799-.18885-.125-.28125-.31722-.65501-.64097-1.33101-.96875-1.96875-.0174-.0339-.045-.0599-.0625-.0937-.23284-.45169-.48093-.86908-.71875-1.3125-.15099-.28138-.28459-.56559-.4375-.84375-.0787-.14313-.13957-.29521-.21875-.4375-.0293-.0526-.0644-.10377-.0937-.15625-.0639-.11433-.12331-.22995-.1875-.34375-.0184-.0326-.0458-.0605-.0625-.0937-.004-.008.004-.0234 0-.0312-.0374-.066-.0875-.12164-.125-.1875-.0795-.13957-.17032-.26735-.25-.40625l-.34375-.59375-.0312-.0625c-.188-.32078-.37214-.65208-.5625-.96875l-.5625-.9375c-.2483-.40301-.49899-.79164-.75-1.1875-.0932-.14695-.18758-.29139-.28125-.4375-.30193-.47113-.59978-.9435-.90625-1.40625-.2006-.3025-.39135-.60715-.59375-.90625-.0454-.0673-.11058-.1203-.15625-.1875l-.0625-.0937c-.39323-.57714-.78967-1.15438-1.1875-1.71875-.005-.007.005-.0244 0-.0312-.6235-.88332-1.2394-1.73595-1.875-2.59375-.0528-.0714-.10335-.14749-.15625-.21875l-.0937-.125-.0937-.125c-.6351-.852-1.26275-1.66876-1.90625-2.5-.4991-.6439-.99551-1.27238-1.5-1.90625-.72475-.91483-1.4594-1.82085-2.1875-2.71875l-.0937-.125c-.15278-.18826-.31595-.37483-.46875-.5625-.17942-.22034-.35185-.43664-.53125-.65625l-.125-.15625c-.0518-.0634-.10442-.12414-.15625-.1875-.79949-.97755-1.58021-1.93798-2.375-2.90625-.3434-.41843-.68945-.83233-1.03125-1.25-.0373-.0456-.0877-.0794-.125-.125-.28982-.35985-.55151-.73498-.84375-1.09375-.7617-.93602-1.53385-1.87261-2.28125-2.8125l-.125-.15625c-.0686-.0864-.1503-.16353-.21875-.25-.86866-1.09717-1.72197-2.19899-2.5625-3.3125-.0367-.0486-.0571-.10762-.0937-.15625l-.1875-.25c-.32152-.42891-.65237-.84866-.96875-1.28125-.0842-.11432-.16621-.22921-.25-.34375-.10941-.15067-.23501-.28632-.34375-.4375-.0354-.0488-.0584-.10737-.0937-.15625-.13131-.18314-.24472-.37856-.375-.5625-.12043-.17003-.25548-.32925-.375-.5-.27525-.39324-.54231-.79013-.8125-1.1875-.5356-.78727-1.0487-1.60021-1.5625-2.40625l-.0312-.0312c-.3981-.62523-.77265-1.26792-1.15625-1.90625-.1754-.29218-.35915-.57984-.53125-.875-.0188-.0323-.0438-.0615-.0625-.0937 16.6597-4.5251 28.6875-17.26456 28.6875-32.28125l-1.21875-8.09375c-4.54165-15.0657-21.0707-25.71919-40.1568-25.96935-.3368-8.39516-.4659-15.92975-.5-20.96875 .25941-.03306.50731-.0791.75-.15625 1.4562-.46288 2.55496-1.6955 2.84375-3.21875 .0481-.25388.0937-.51256.0937-.78125v-1.9375c0-2.33332-1.88545-4.21875-4.21875-4.21875h-1.375l1.21875-14.875zm1.53125,53.78125c14.6344.37028 27.2577,8.57015 30.75,20.15625l.9375,6.28125c0,11.87235-9.648,21.88989-22.9375,25.25-.23789-.53565-.46102-1.0785-.6875-1.625l-.0312-.0625-.0312-.0625-.28125-.6875-.0625-.15625c-.4773-1.20486-.92795-2.4196-1.34375-3.6875l-.0937-.28125c-.0587-.18189-.0989-.37923-.15625-.5625-.007-.0224-.0243-.0401-.0312-.0625-.26436-.84767-.51576-1.7154-.75-2.59375-.2403-.90103-.4655-1.84573-.6875-2.8125l-.0937-.40625c-.24888-1.12137-.4901-2.30106-.71875-3.5-.12339-.64347-.25804-1.27473-.375-1.9375-.007-.0409-.0241-.084-.0312-.125-.10899-.62089-.20898-1.27003-.3125-1.90625-.11303-.69563-.20584-1.38156-.3125-2.09375-.041-.27434-.085-.53586-.125-.8125-.18285-1.25657-.33567-2.54633-.5-3.84375-.0747-.59287-.14774-1.18121-.21875-1.78125-.0139-.11729-.0487-.22621-.0625-.34375-.17746-1.51749-.34489-3.04229-.5-4.59375-.0959-.95404-.16223-1.91309-.25-2.875-.07-.77088-.15365-1.53836-.21875-2.3125-.074-.87607-.15091-1.74754-.21875-2.625-.0686-.88844-.12493-1.76914-.1875-2.65625-.12684-1.80098-.23974-3.59477-.34375-5.375h-.0312c-.037-.63253-.0595-1.27855-.0937-1.90625z" fill="#fff"/>
  <path d="m116.96 49.471 3.6654 38.321 39.987 0.66644 3.3322-40.653z" fill="url(#aa)"/>
  <path d="m117.46 62.697c-2.3333 0-4.2187 1.8854-4.2187 4.2188v1.9375c0 2.1069 1.5474 3.8391 3.5624 4.1562-0.5362 13.664-2.426 50.62-7.8124 70.5-10.278 37.932-45.755 45.725-48.531 107.47-1.4256 31.705 22.156 92.594 22.156 92.594s-3.8386 8.2824-4.7188 12.719c-0.826 4.163-0.4688 12.719-0.4688 12.719s28.039 21.874 69.5 20.281c43.662-1.6772 59.625-19.812 59.625-19.812s1.5754-9.5416 0.4688-14.125c-0.7591-3.1442-4.7187-8.5-4.7188-8.5s20.374-63.284 19.313-95.875c-1.9867-61.014-40.663-69.177-50.875-107.47-5.2213-19.578-6.0238-55.568-6.125-70.5 2.0754-0.26446 3.6874-2.0067 3.6874-4.1562v-1.9375c0-2.3333-1.8854-4.2188-4.2187-4.2188h-46.625z" fill="url(#z)"/>
  <path d="m117.46 62.697c-2.3333 0-4.2187 1.8854-4.2187 4.2188v1.9375c0 2.1069 1.5475 3.8391 3.5624 4.1562-0.5362 13.664-2.4261 50.62-7.8124 70.5-10.278 37.932-45.755 45.725-48.531 107.47-1.4256 31.705 22.156 92.594 22.156 92.594s-3.8386 8.2824-4.7188 12.719c-0.826 4.163-0.4688 12.719-0.4688 12.719s28.039 21.874 69.5 20.281c43.662-1.6772 59.625-19.812 59.625-19.812s1.5754-9.5416 0.4688-14.125c-0.7591-3.1442-4.7186-8.5-4.7188-8.5s20.374-63.284 19.313-95.875c-1.66-50.98-28.93-65.067-43.813-90.656 16.66-4.5251 28.688-17.265 28.688-32.281l-1.2188-8.0938c-4.5411-15.065-21.07-25.719-40.156-25.969-0.3368-8.3952-0.4659-15.93-0.5-20.969 2.0753-0.26446 3.6874-2.0067 3.6874-4.1562v-1.9375c0-2.3333-1.8854-4.2188-4.2187-4.2188h-46.625zm48 38.906c14.634 0.37028 27.258 8.5702 30.75 20.156l0.9375 6.2812c0 11.872-9.648 21.89-22.938 25.25-1.3581-3.0581-2.536-6.2837-3.4687-9.7812-2.935-11.005-4.4785-27.185-5.2813-41.906z" fill="url(#y)" stroke="#ccc"/>
  <path d="m165.58 103.51-50.688 0.1875c-1.216 14.13-3.077 29.37-5.9062 39.812-10.278 37.932-45.755 45.725-48.531 107.47-1.4256 31.705 22.156 92.594 22.156 92.594s-0.2382 0.50204-0.4063 0.875c14.222 9.0723 36.88 14.906 62.406 14.906 22.945 0 43.577-4.7334 57.844-12.281l-0.1563-0.21875s20.374-63.284 19.313-95.875c-1.9868-61.014-40.663-69.177-50.875-107.47-2.7975-10.489-4.3242-25.758-5.1563-40z" fill="url(#m)"/>
  <path d="m164.85582,103.6864-50.5312.25c-1.2132,14.4279-3.0982,30.19589-6,40.90625-10.2778,37.93217-45.7549,45.72534-48.5313,107.46875-1.4256,31.70536 22.1563,92.59375 22.1563,92.59375s-.2394.47491-.4063.84375v.0312c.726.46311 1.4808.89769 2.25,1.34375 .7945.46067 1.5985.90203 2.4375,1.34375s1.7119.89052 2.5938,1.3125 1.7644.81729 2.6874,1.21875c.9109.39613 1.8632.78085 2.8126,1.15625l.3124.125c.8371.32699 1.6658.6584 2.5313.96875 1.0399.37366 2.1082.74484 3.1875,1.09375 .9129.2951 1.8414.56694 2.7812.84375 .1683.0496.3309.10728.5.15625 1.0323.29888 2.0934.56749 3.1563.84375l1.9063.46875c1.1785.2855 2.3816.58652 3.5937.84375 .1659.0352.3334.0591.5.0937 .8578.17919 1.7202.36656 2.5937.53125l1.3438.25 .4062.0625 .5313.0937c1.0222.17507 2.0523.34502 3.0937.5l.2813.0312c1.4494.21205 2.891.39033 4.375.5625 1.3606.15786 2.7375.31418 4.125.4375l.625.0625c1.4347.12171 2.883.19747 4.3437.28125 1.5452.0886 3.1159.17381 4.6876.21875s3.1545.0625 4.75.0625c2.6874,0 5.3513-.0607 7.9687-.1875l.5313-.0312c2.4471-.12655 4.8448-.29905 7.2187-.53125l1-.0937c.2627-.0274.5195-.0651.7813-.0937 2.4199-.26511 4.7967-.59874 7.125-.96875 1.29-.20501 2.5534-.42035 3.8124-.65625s2.5239-.48415 3.75-.75c1.1413-.24745 2.2639-.50864 3.375-.78125l.25-.0625c1.1913-.29487 2.3456-.61455 3.5-.9375s2.2907-.64991 3.4063-1 2.2065-.71746 3.2813-1.09375c.8961-.31378 1.7897-.63735 2.6562-.96875 .1752-.0671.3573-.11973.5312-.1875 .8731-.33973 1.7214-.7053 2.5626-1.0625 .1527-.0649.317-.122.4687-.1875 1.9295-.83243 3.7528-1.70491 5.5-2.625l.125-.0625-.1563-.21875c0,0 20.3736-63.28363 19.3126-95.875-1.9869-61.01357-40.6634-69.17734-50.875-107.46875-2.8732-10.77294-4.4024-26.59242-5.2188-41.15625z" fill="url(#x)" opacity=".65"/>
  <path d="m168.11542,136.79101c-3.59,3.06574-15.149,5.3125-28.8438,5.3125-13.5921,0-25.038-2.21953-28.7188-5.25-.483,2.37205-1.0081,4.61025-1.5624,6.65625-1.4584,5.38227-3.4422,10.15444-5.75,14.5625-.4483.85616-.9022,1.70101-1.375,2.53125-.4754.83464-.9711,1.65674-1.4688,2.46875-.9925,1.61918-2.0268,3.1995-3.0938,4.75-1.6062,2.33424-3.2805,4.61586-5,6.875-4.0103,5.26928-8.2279,10.44919-12.25,16.1875-.035.05-.0587.10617-.0937.15625-.5385.77094-1.0638,1.55167-1.5937,2.34375-.1097.16374-.2033.33528-.3126.5-.5603.84556-1.1396,1.68902-1.6874,2.5625-.2242.35704-.4345.73162-.6563,1.09375s-.4407.70105-.6563,1.0625c-.246.41199-.4761.83099-.7187,1.25-.4554.78645-.9015,1.59334-1.3437,2.40625-.3204.58968-.656,1.17664-.9688,1.78125-.079.15267-.1403.31509-.2188.46875-.4212.82497-.8443,1.64532-1.25,2.5-.256.53955-.5005,1.10416-.75,1.65625-.1975.43671-.4006.86764-.5937,1.3125-.0504.11632-.1061.22687-.1563.34375-.9112,2.12162-1.7633,4.33209-2.5624,6.65625-.0032.009.0031.022 0,.0312-.2001.58255-.4015,1.18486-.5938,1.78125-.2395.74388-.4919,1.48381-.7188,2.25-.112.37805-.2036.7726-.3124,1.15625-.2765.97422-.5576,1.95726-.8126,2.96875-.1266.5026-.2225,1.01913-.3437,1.53125-.2271.95976-.4493,1.912-.6563,2.90625-.1328.6382-.282,1.28462-.4062,1.9375-.0618.32466-.1278.64039-.1875.96875-.0018.0101.0018.0212 0,.0312-.2447,1.34864-.4496,2.71207-.6563,4.125-.1565,1.07004-.3038,2.17277-.4374,3.28125-.0026.0208.0024.0417 0,.0625-.0687.57189-.1564,1.13636-.2188,1.71875-.1485,1.38575-.2633,2.80303-.375,4.25-.1257,1.62832-.2356,3.29078-.3125,5-.0445.99079-.0653,1.9862-.0625,3.03125s.0466,2.12493.0938,3.21875c.0397.92845.0864,1.88384.1562,2.84375 .1034,1.42168.2419,2.86221.4062,4.34375 .165,1.487.3733,2.99497.5938,4.53125 .0858.59788.1564,1.20832.25,1.8125 .0516.33358.1023.66465.1562,1 .174,1.08183.3661,2.15216.5626,3.25 .2246,1.25516.4675,2.54157.7187,3.8125s.5064,2.53129.7813,3.8125c.1944.90612.3887,1.80984.5937,2.71875 .1946.86344.3905,1.72949.5937,2.59375 .332,1.41203.6795,2.81039 1.0313,4.21875 .2634,1.05363.5399,2.10824.8125,3.15625 .4146,1.59476.819,3.17717 1.25,4.75 .0461.16798.11.33234.1562.5 .3926,1.42508.7866,2.82111 1.1876,4.21875 .1375.47935.268.962.4062,1.4375 .4241,1.45878.8543,2.92746 1.2812,4.34375 .4885,1.62035.9837,3.19839 1.4688,4.75 .2564.8204.4961,1.6081.75,2.40625 .3649,1.14686.737,2.21671 1.0938,3.3125 .1681.51687.3341,1.08923.5,1.59375 .6124,1.86056 1.2436,3.76709 1.8124,5.4375 16.6043,18.83978 39.3783,30.46875 64.5,30.46875 .5118,0 1.0215-.0217 1.5313-.0312-37.0308-.87074-66.875-44.46091-66.875-98.125 0-54.20869 30.4482-98.15625 68-98.15625 31.3402,0 58.6295,30.92416 66.0625,74.875l1.9375,23.28125c0,49.77521-25.668,90.91915-58.9375,97.3125 21.8388-3.20355 41.2539-15.26107 55.5312-32.9375 .0165-.0601.0461-.12729.0626-.1875 .718-2.62388 1.4365-5.41237 2.1874-8.3125 .6745-2.60472 1.3583-5.32913 2.0313-8.09375 .0912-.37452.1903-.74816.2813-1.125 .2801-1.16221.5677-2.34995.8437-3.53125 .474-2.02723.9522-4.09021 1.4063-6.15625l.375-1.71875c.0335-.15579.0603-.31285.0937-.46875 .4439-2.07077.8704-4.13891 1.2813-6.21875 .0841-.42685.1674-.85457.25-1.28125 .0139-.0722.0173-.14653.0312-.21875 .2428-1.25936.4918-2.52691.7188-3.78125 .072-.39749.1484-.79084.2187-1.1875 .1651-.93265.3139-1.85458.4687-2.78125 .1199-.71544.2305-1.41419.3438-2.125 .0957-.60165.1905-1.18352.2812-1.78125 .1545-1.01512.2984-2.02963.4376-3.03125 .2162-1.56037.4183-3.10585.5937-4.625 .004-.0313-.004-.0625 0-.0937 .178-1.54851.3382-3.06797.4687-4.5625s.2344-2.94545.3126-4.375 .1353-2.83394.1562-4.1875 .01-2.67092-.0312-3.9375c-.0551-1.69141-.14-3.3568-.25-4.96875s-.2441-3.18272-.4063-4.71875-.3508-3.03636-.5625-4.5c-.8467-5.85457-2.0673-11.13097-3.5938-15.96875-.6761-2.14297-1.4343-4.18076-2.2187-6.15625-.5442-1.36922-1.0975-2.7033-1.6875-4-.0719-.15818-.1462-.31159-.2188-.46875-.0138-.03-.0173-.0637-.0312-.0937-.5332-1.15102-1.0909-2.27628-1.6562-3.375-.5586-1.08548-1.1324-2.14852-1.7188-3.1875-.023-.0408-.0395-.0843-.0625-.125-.0374-.066-.0875-.12164-.125-.1875-.5742-1.00853-1.153-1.99973-1.75-2.96875-.636-1.0323-1.2796-2.03888-1.9375-3.03125-.2006-.3025-.3914-.60715-.5938-.90625-.4619-.68366-.9358-1.36411-1.4062-2.03125-.6235-.88332-1.2394-1.73595-1.875-2.59375-.0528-.0714-.1033-.14749-.1562-.21875l-.1876-.25c-.6351-.852-1.2627-1.66876-1.9062-2.5-1.2171-1.57021-2.4566-3.10856-3.6875-4.625l-.5625-.6875c-1.0716-1.31489-2.1226-2.61019-3.1875-3.90625-.3434-.41843-.6895-.83233-1.0313-1.25-.3314-.40456-.6393-.81436-.9687-1.21875-.7617-.93602-1.5339-1.87261-2.2813-2.8125-.9736-1.2234-1.9671-2.47569-2.9062-3.71875-.0366-.0485-.0572-.10774-.0938-.15625-1.1706-1.55348-2.3103-3.10798-3.4062-4.71875-.5356-.78727-1.0487-1.60021-1.5625-2.40625l-.0313-.0312c-.3981-.62523-.7726-1.26792-1.1562-1.90625-.1754-.29218-.3591-.57984-.5312-.875-.4433-.75923-.8609-1.53177-1.2813-2.3125-.4706-.87382-.9356-1.75213-1.375-2.65625-1.7855-3.67422-3.3157-7.614-4.4687-11.9375-.5517-2.06864-1.0427-4.32088-1.5-6.71875h-1.125z" fill="url(#l)" opacity=".5"/>
  <path d="m163.58 103.76-16.75 0.0625c0.8185 14.521 2.3559 30.265 5.2187 41 10.212 38.291 48.888 46.455 50.875 107.47 1.0611 32.591-19.312 95.875-19.312 95.875s3.9596 5.3558 4.7187 8.5c1.1066 4.5834-0.4687 14.125-0.4687 14.125s-6.2546 8.1597-19.375 15.656c22.879-4.8849 33.276-14.186 35.469-16.375 0.2706-1.7707 1.3545-9.3492 0.375-13.406-0.7591-3.1442-4.7186-8.5-4.7187-8.5s20.374-63.284 19.312-95.875c-1.9866-61.014-40.663-69.177-50.875-107.47-2.8629-10.735-4.4002-26.479-5.2187-41h0.7813c0-0.0214-0.03-0.0411-0.031-0.0625z" fill="#fff" filter="url(#ac)" opacity=".65"/>
  <path d="m82.209 345.79c-0.8831 1.9639-3.5728 8.1158-4.3125 11.844-0.388 1.9554-0.5057 4.8544-0.5312 7.4062-0.0017 0.16459 8e-4 0.33887 0 0.5 0.0056 0.73245 0.0188 1.5323 0.0312 2.0625 0.0204 0.86761 0.0312 1.4062 0.0312 1.4062s28.039 21.874 69.5 20.281c43.662-1.6772 59.625-19.812 59.625-19.812s0.772-4.7711 0.8438-9.1875c-0.0291-1.3342-0.1315-2.5852-0.375-3.5938-0.7128-2.9523-4.1343-7.6957-4.5625-8.2812-14.267 7.5479-34.899 12.281-57.844 12.281-25.526 0-48.184-5.834-62.406-14.906z" fill="url(#w)" opacity=".5"/>
  <path d="m198.18 339.9c-14.536 4.1523-35.194 8.2856-60.825 8.6341-20.652 0.28084-39.496-4.2042-52.181-8.2499-2.002 2.9337-5.1721 7.9301-6.0134 11.345-1.3433 5.4522 0.5105 16.794 0.5105 16.794s16.622 13.093 64.554 12.706c41.429-0.33445 61.687-11.361 61.687-11.361s2.073-10.728 0.5135-15.755c-1.4567-4.6942-8.7599-11.992-8.7599-11.992s0.245-0.94042 0.5143-2.1219z" fill="#fff" opacity=".1"/>
  <path d="m204.47 368.67c-5.3357 6.7505-31.889 11.872-63.822 11.872-30.882 0-56.727-4.784-63.215-11.204 0.1269 0.92413 0.2429 1.6396 0.2429 1.6396s16.619 13.078 64.551 12.692c41.429-0.33445 61.667-11.356 61.667-11.356s0.2956-1.5099 0.577-3.6435z" fill="#fff" fill-rule="evenodd"/>
  <path d="m204.47 352.17c-5.3357 6.7504-31.889 11.872-63.822 11.872-30.882 0-56.727-4.784-63.215-11.204 0.1269 0.92413 0.2429 1.6396 0.2429 1.6396s16.619 13.078 64.551 12.692c41.429-0.33445 61.667-11.356 61.667-11.356s0.2956-1.5099 0.577-3.6435z" fill="#fff" fill-rule="evenodd"/>
  <path transform="matrix(.95929 -.15422 .15422 .95929 -2456.1 284.33)" d="m2684.5 499.47c-0.1548 7.8029 0.1923 16.048-2.4687 23.375 3.3652-1.496 8.5175-2.0329 7.5937-6.8125 1.3246-6.5663-0.083-13.466-5.125-18.125v1.5625z" fill="#fff" filter="url(#h)" opacity=".5"/>
  <path transform="matrix(.97161 0 0 .97161 -2411.9 -136.2)" d="m2570.3 496.76c-4.9223 6.6118-3.7317 15.236-2.7188 22.719 1.1958 0.54093 5.9262 4.4653 4.3438 1-1.9693-7.7267-1.073-15.604-1.625-23.719z" fill="#fff" filter="url(#i)"/>
  <path d="m204.47 368.67c-5.3357 6.7505-31.889 11.872-63.822 11.872-30.882 0-56.727-4.784-63.215-11.204 0.1269 0.92413 0.2429 1.6396 0.2429 1.6396s16.619 13.078 64.551 12.692c41.429-0.33445 61.667-11.356 61.667-11.356s0.2956-1.5099 0.577-3.6435z" fill="url(#v)" fill-rule="evenodd"/>
  <path d="m204.47 352.17c-5.3357 6.7504-31.889 11.872-63.822 11.872-30.882 0-56.727-4.784-63.215-11.204 0.1269 0.92413 0.2429 1.6396 0.2429 1.6396s16.619 13.078 64.551 12.692c41.429-0.33445 61.667-11.356 61.667-11.356s0.2956-1.5099 0.577-3.6435z" fill="url(#u)" fill-rule="evenodd"/>
  <path transform="matrix(.95929 -.15422 .15422 .95929 -2456.1 284.33)" d="m2684.5 499.47c-0.1548 7.8029 0.1923 16.048-2.4687 23.375 3.3652-1.496 8.5175-2.0329 7.5937-6.8125 1.3246-6.5663-0.083-13.466-5.125-18.125v1.5625z" fill="#999" filter="url(#h)" opacity=".5"/>
  <path transform="matrix(.97161 0 0 .97161 -2411.9 -136.2)" d="m2570.3 496.76c-4.9223 6.6118-3.7317 15.236-2.7188 22.719 1.1958 0.54093 5.9262 4.4653 4.3438 1-1.9693-7.7267-1.073-15.604-1.625-23.719z" fill="#999" filter="url(#i)"/>
  <path d="m152.75932,103.43533-12,.0625v.0625l-22.5312.125c-1.2132,14.42791-3.0982,30.1959-6,40.90626-10.2778,37.93216-45.755,45.72534-48.5312,107.46875-1.4258,31.70536 22.1562,92.59375 22.1562,92.59375s-.2394.47491-.4062.84375v.0312c.726.46311 1.4808.89769 2.25,1.34375 .7943.46067 1.5986.90203 2.4374,1.34375s1.7119.89052 2.5938,1.3125 1.7645.81729 2.6875,1.21875c.9109.39613 1.8631.78085 2.8125,1.15625l.3125.125c.8371.32699 1.6656.6584 2.5313.96875 1.0398.37366 2.1083.74484 3.1874,1.09375 .9131.2951 1.8415.56694 2.7813.84375 .1683.0496.3309.10728.5.15625 1.0323.29888 2.0934.56749 3.1563.84375l1.9062.46875c1.1785.2855 2.3816.58652 3.5938.84375 .1657.0352.3333.0591.5.0937 .8577.17919 1.7202.36656 2.5937.53125l1.3437.25 .4063.0625 .5313.0937c1.0222.17507 2.0523.34502 3.0937.5l.2813.0312c1.4492.21205 2.8909.39033 4.375.5625 1.3604.15786 2.7373.31418 4.125.4375l.3124.0312c-1.7802.15115-3.5815.28064-5.4062.375l-.5312.0312c-.6079.0294-1.2312.0401-1.8438.0625 .3769.0149.7476.0517 1.125.0625 1.5716.0449 3.1545.0625 4.75.0625 2.6874,0 5.3512-.0607 7.9688-.1875l.5312-.0312c1.8247-.0944 3.6259-.22385 5.4062-.375l-.3124-.0312c-1.3877-.12332-2.7645-.27964-4.125-.4375-1.4842-.17217-2.9258-.35045-4.375-.5625l-.2813-.0312c-1.0414-.15498-2.0716-.32493-3.0937-.5l-.5313-.0937-.4063-.0625-1.3437-.25c-.8735-.16469-1.7361-.35206-2.5937-.53125l-.5-.0937c-1.2123-.25723-2.4153-.55825-3.5938-.84375l-1.9062-.46875c-1.063-.27626-2.124-.54487-3.1563-.84375-.1691-.049-.3317-.10665-.5-.15625-.9398-.27681-1.8682-.54865-2.7813-.84375-1.0791-.34891-2.1476-.72009-3.1874-1.09375-.8657-.31035-1.6942-.64176-2.5313-.96875l-.3125-.125c-.9494-.3754-1.9016-.76012-2.8125-1.15625-.923-.40146-1.8057-.79677-2.6875-1.21875s-1.7548-.87078-2.5938-1.3125-1.643-.88308-2.4374-1.34375c-.7693-.44606-1.5241-.88064-2.25-1.34375v-.0312c.1668-.36884.4062-.84375.4062-.84375s-23.5819-60.88839-22.1562-92.59375c2.7762-61.74341 38.2534-69.53659 48.5312-107.46875 2.9018-10.71036 4.7868-26.47835 6-40.90626l22.5312-.125v-.125z" fill="#fff" filter="url(#ab)" opacity=".65"/>
  <path d="m117.18 64.728c-3.7979 0.79359-2.1318 8.2542 2.1563 6.3438 15.275-0.25684 30.738 0.49565 45.906-0.34375 2.7324-2.0862 0.6863-7.8123-3.3126-6.0312-14.916 0.02145-29.837-0.0425-44.75 0.03125z" fill="url(#t)" filter="url(#ag)" opacity=".6"/>
  <path d="m167.16 97.91c-0.5042 4.0056 5.7142 1.7175 8.375 3.3438 13.96 2.9327 26.891 15.924 24.344 31.062-1.8902 11.781-12.396 20.345-23.469 23.219 0.9758 2.6384 2.712 4.1778 5.3125 2.25 14.809-4.6408 27.661-20.13 22.763-36.202-4.4156-15.96-21.748-24.754-37.357-25.11l0.022 0.99976 0.01 0.43774z" fill="url(#k)" filter="url(#af)" opacity=".6"/>
  <path d="m212.77 277.99-0.75 1.1562c-1.9815 3.0195-14.238 21.983-16.844 33.688-3.3291 14.956 0.9055 44.884 1.3126 47.656l-0.375-0.0312-0.4376 7.8125c-1.9897 1.0749-3.9626 2.1481-5.9062 3.1875l-3.625-2.6562c-1.2414-2.416-11.181-21.445-19.719-28.688-11.616-9.8546-41.437-19.25-41.437-19.25s9.0122 25.506 18.625 34.25c14.839 13.497 36.432 14.547 41.75 14.594l3.1874 2.375c-2.1464 1.145-4.3178 2.274-6.5312 3.4375-2.7287 0.55888-5.425 1.9749-7.8125 4.0938-5.1248 2.6421-10.794 5.515-17.531 8.875-5.8134 2.8993-11.694 5.7076-17.625 8.3438-5.2108 2.3163-7.131 2.7749-11.875 4.1562a0.5611 0.5611 0 0 0 -0.1874 0.0937l-4.4688 3.4375a0.5611 0.5611 0 0 0 0.5312 0.96875c4.9284-1.4869 7.1682-2.0315 12.594-4.5 6.2012-2.8214 12.277-5.8244 18.344-8.9062 6.3256-3.2136 11.724-6.0103 16.844-8.6875-1.6662 2.2871-3.0479 4.9428-4 7.9375-3.5594 11.196 0.1831 22.396 8.375 25 4.9091 1.5608 10.298-0.33667 14.594-4.5 3.8832 9.3384 12.08 14.993 19.5 12.938 8.2841-2.2944 12.448-13.335 9.3126-24.656l-1.375-3.6875c1.6247 0.59319 3.2408 1.0237 4.8437 1.2812 3.7383 4.0582 7.5515 7.6953 11 10.094 9.0786 6.3143 28.191 11.557 34 13.062l2.375 0.625 0.1563 0.0312s-17.2-21.866-28.219-30.094c-0.5629-0.42033-1.1827-0.85241-1.8125-1.2812 3.0788-7.3582-1.7136-17.254-11.312-22.781-10.181-5.8621-21.898-4.5742-26.188 2.875-0.1649 0.28631-0.2991 0.57842-0.4375 0.875l0.0312-0.125-0.3437-0.0625-3.25-2.125c6.669-3.6379 13.976-7.6049 22.719-12.375l4.0626-1.1562-0.125-0.4375c3.7519 0.80738 17.727 3.1869 29.281-3.3125 7.3662-4.1436 16.555-18.391 17.125-19.281 0.0194-0.0137 0.0433-0.0489 0.0625-0.0625 0.041-0.0639 0.1563-0.25 0.1563-0.25s-0.9358 0.0972-1.25 0.125c-3.1702 0.28007-20.516 1.9384-28.781 6.2188-5.5688 2.8838-13.062 11.062-16.125 14.562a0.56115 0.56115 0 0 0 -0.8437 -0.125c-6.527 3.5308-11.793 6.4107-16.781 9.125l3.5-5.8438c3.1582-1.8289 19.247-11.334 25.375-19.281 8.3247-10.796 15.35-36.695 15.875-38.656 0.068-0.25216 0.1875-0.65625 0.1875-0.65625v-0.0312s-23.266 9.5067-30.969 18.812c-12.141 14.667-11.946 35.211-11.75 39.594l-4.3437 7.2188c-2.998 1.6311-5.8208 3.1271-8.5313 4.5938l0.4063-7.0625-0.5-0.0312c0.7329-1.5323 12.87-27.057 15.531-41.25 2.39-12.748 0.6475-37.372 0.4374-40.219 6e-3 -0.0153 0.0258-0.0474 0.0313-0.0625-0.011-0.1491-0.0625-0.96875-0.0625-0.96875zm-15.906 91.469 1.125 0.71875-1.75-0.375 0.625-0.34375zm-1.7813 1.5312 6.0625 1.3438c-1.1392 3.4029-0.7069 7.327 1.0938 11.094-1.0222-0.10145-2.0528-0.0996-3.0626 0.0625l-5-11.062c0.1193 0.0209 0.2466-7e-3 0.375-0.0312 0.5138-0.0978 0.8375-0.54095 0.75-1l-0.0624-0.1875c-0.0432-0.0882-0.0857-0.15252-0.1563-0.21875zm-5.0937 2.2188-1.3126 2.6875 1.2813 0.625 1.5-3.0938c0.1764 0.32872 0.5736 0.51869 1 0.4375 0.2834-0.054 0.5196-0.19511 0.6563-0.40625l4.6562 10.375c-0.4597 0.13463-0.9104 0.28138-1.3438 0.46875-1.6041-4.1862-4.5264-7.2863-8.3437-8.5-0.6759-0.2149-1.3413-0.38115-2.0313-0.46875l3.9376-2.125z" fill="url(#j)" filter="url(#ae)" opacity=".5"/>
  <g transform="matrix(.70155 -.13357 .13357 .70155 -233.29 -8.4586)">
   <path transform="matrix(.7682 -.06317 .06317 .7682 160.78 85.767)" d="m392.08 800.82c0 21.342-12.659 38.642-28.275 38.642s-28.275-17.301-28.275-38.642 12.659-38.642 28.275-38.642c13.033 0 24.377 12.174 27.468 29.477" fill="url(#c)"/>
   <path transform="matrix(.98069 -.08064 .08064 .98069 95.639 -83.029)" d="m354.38 804.59c0 7.2874-1.8989 13.195-4.2412 13.195s-4.2412-5.9076-4.2412-13.195 1.8989-13.195 4.2412-13.195c1.9549 0 3.6566 4.1571 4.1202 10.065" fill="url(#a)" filter="url(#b)" opacity=".4"/>
   <path d="m512.53 612.38-8.3438 9.2812c-4.5511 1.4584-8.8249 2.7862-12.938 4.0938l2.4062-9.5938-1.6562-0.40625-2.6562 10.625c-3.0185 0.95746-6.023 1.923-8.9688 2.8438l-6.9062-7.5-1.25 1.125 6.3438 6.9062c-13.823 4.3047-27.784 8.4821-48.156 14.219-8.756 2.4656-17.558 4.802-26.406 6.875-7.7744 1.8215-10.55 1.9361-17.438 2.5938a0.78569 0.78569 0 0 0 -0.28125 0.0625l-7.0312 3.5625a0.78569 0.78569 0 0 0 0.4375 1.5c7.1686-0.75465 10.39-0.93163 18.5-2.9062 9.2691-2.2569 18.442-4.8182 27.594-7.4688 26.943-7.8032 44.605-13.353 64.906-19.875l7.2188 6.9062 1.1875-1.2188-6.5625-6.2812c10.126-3.2576 21.194-6.7906 34.469-11.062l5.9062-0.53125-0.15625-1.6875-0.25 0.0312 1.0312-0.5625a0.78577 0.78577 0 1 0 -0.625 -1.4375c-9.9029 3.1475-17.897 5.7289-25.469 8.1562l6.3438-7.0938-1.25-1.1562z" fill="url(#s)" opacity=".6"/>
   <path d="m492.5 616.62s1.7538-45.986 10.663-66.645c7.2144-16.728 33.322-43.319 33.322-43.319s-4.3037 38.719-11.33 56.648c-7.6038 19.404-32.656 53.316-32.656 53.316z" fill="url(#r)"/>
   <path d="m404.53 542.64s5.7283 37.438 16.661 51.983c19.369 25.768 55.315 31.323 55.315 31.323s-9.4948-32.979-19.993-45.985c-13.398-16.598-51.983-37.321-51.983-37.321z" fill="url(#q)"/>
   <path d="m586.13 543.74s-34.517 6.9428-47.551 17.726c-23.089 19.104-26.689 52.726-26.689 52.726s30.214-10.247 41.836-20.561c14.833-13.162 32.403-49.891 32.403-49.891z" fill="url(#p)"/>
   <path d="m602.96 596.19s-17.395 18.53-28.969 22.42c-20.505 6.8922-42.498-3.6954-42.498-3.6954s17.784-14.633 28.533-17.837c13.718-4.0889 42.934-0.88835 42.934-0.88835z" fill="url(#o)"/>
   <path d="m496.53 632.2s18.17 42.281 33.911 58.354c12.746 13.016 46.669 28.442 46.669 28.442s-17.937-34.582-30.939-48.787c-14.072-15.373-49.641-38.01-49.641-38.01z" fill="url(#n)"/>
   <path d="m405 542.91c5.338 9.2426 18.962 32.33 28.844 44.281 11.031 13.341 34.455 33.557 39.906 38.219 1.7148 0.36667 2.75 0.53125 2.75 0.53125s-0.12178-0.46421-0.1875-0.6875c-2.2468-1.9096-29.41-25.058-41.094-39.188-8.7237-10.55-20.908-30.789-27.156-41.469-1.63-0.91619-2.6966-1.4894-3.0625-1.6875z" fill="#819532"/>
   <path d="m536.5 506.66-1.3438 1.4062c-5.5058 9.2909-19.974 34.11-26.188 49.406-6.8881 16.956-14.627 49.016-16.312 56.125-0.0917 1.7341-0.1543 2.9181-0.15625 2.9688h0.0312l0.625-0.875c0.64688-2.7662 9.3508-39.707 16.719-57.844 6.345-15.619 21.426-41.359 26.469-49.844l0.15625-1.3438z" fill="#819532"/>
   <path d="m586.12 543.75s-0.55405 0.10387-1.375 0.28125c-9.5095 5.6242-31.738 19.205-42.594 29.562-11.995 11.445-29.75 39.438-29.75 39.438l0.84375 0.53125s17.833-28.029 29.594-39.25c10.947-10.445 33.797-24.343 42.844-29.688 0.16015-0.32894 0.4375-0.875 0.4375-0.875z" fill="#819532"/>
   <path d="m601.25 596.03c-8.2341 3.734-23.899 10.565-33.531 12.969-9.1979 2.2952-25.934 3.53-33.781 4-0.7317 0.57398-1.0238 0.77891-1.375 1.0625 6.2853-0.33455 24.971-1.4898 35.406-4.0938 10.188-2.5422 26.794-9.8401 34.719-13.469l0.28125-0.3125s-1.2793-0.11217-1.7188-0.15625z" fill="#819532"/>
   <path d="m496.53 632.19s0.38121 0.92412 1 2.3125c6.1445 7.9862 24.807 32.019 36.594 44.781 10.506 11.375 30.402 29.705 39.688 38.156l3.0938 1.4688c-6.1711-5.5744-29.92-27.165-42.062-40.312-12.427-13.455-32.657-39.635-37.375-45.781-0.1144-0.0732-0.9375-0.625-0.9375-0.625z" fill="#819532"/>
   <path transform="matrix(.96952 .16815 -.16815 .96952 269.48 -175.05)" d="m354.38 804.59c0 7.2874-1.8989 13.195-4.2412 13.195s-4.2412-5.9076-4.2412-13.195 1.8989-13.195 4.2412-13.195c1.9549 0 3.6566 4.1571 4.1202 10.065" fill="url(#a)" filter="url(#b)"/>
   <path transform="matrix(.67792 .36681 -.36681 .67792 509.9 -15.418)" d="m392.08 800.82c0 21.342-12.659 38.642-28.275 38.642s-28.275-17.301-28.275-38.642 12.659-38.642 28.275-38.642c13.033 0 24.377 12.174 27.468 29.477" fill="url(#c)"/>
   <path transform="matrix(.86543 .46827 -.46827 .86543 526.87 -206.75)" d="m354.38 804.59c0 7.2874-1.8989 13.195-4.2412 13.195s-4.2412-5.9076-4.2412-13.195 1.8989-13.195 4.2412-13.195c1.9549 0 3.6566 4.1571 4.1202 10.065" fill="url(#a)" filter="url(#b)" opacity=".6"/>
   <path transform="matrix(.86543 .46827 -.46827 .86543 547.57 -192.38)" d="m354.38 804.59c0 7.2874-1.8989 13.195-4.2412 13.195s-4.2412-5.9076-4.2412-13.195 1.8989-13.195 4.2412-13.195c1.9549 0 3.6566 4.1571 4.1202 10.065" fill="url(#a)" filter="url(#b)" opacity=".6"/>
   <path transform="matrix(-.50277 .58425 .58425 .50277 235.26 34.997)" d="m392.08 800.82c0 21.342-12.659 38.642-28.275 38.642s-28.275-17.301-28.275-38.642 12.659-38.642 28.275-38.642c13.033 0 24.377 12.174 27.468 29.477" fill="url(#c)"/>
   <path transform="matrix(-.64184 .74585 .74585 .64184 152.23 -136.61)" d="m354.38 804.59c0 7.2874-1.8989 13.195-4.2412 13.195s-4.2412-5.9076-4.2412-13.195 1.8989-13.195 4.2412-13.195c1.9549 0 3.6566 4.1571 4.1202 10.065" fill="url(#a)" filter="url(#b)" opacity=".5"/>
   <path transform="matrix(-.64184 .74585 .74585 .64184 138 -115.82)" d="m354.38 804.59c0 7.2874-1.8989 13.195-4.2412 13.195s-4.2412-5.9076-4.2412-13.195 1.8989-13.195 4.2412-13.195c1.9549 0 3.6566 4.1571 4.1202 10.065" fill="url(#a)" filter="url(#b)" opacity=".5"/>
   <path d="m481.72 629.69-4 5.3125 1.5938 1.2188 4-5.3438-1.5938-1.1875z" fill="#474631"/>
   <path d="m487.56 627.69-0.78125 1.8438 9.3125 4 0.8125-1.8438-9.3438-4z" fill="#474631"/>
   <path d="m485.81 630.03-1.9375 0.46875 4.6562 19.344 1.9375-0.46875-4.6562-19.344z" fill="#474631"/>
   <path d="m481.26 629.52 6.3029-2.0028 0.53016 1.0603-2.2384 2.2973-3.7111 0.94249z" fill="#474631"/>
   <path transform="matrix(.2487 0 0 .54701 381.95 398.56)" d="m413.53 426.85c0 1.1962-2.387 2.1659-5.3316 2.1659s-5.3316-0.96972-5.3316-2.1659 2.387-2.166 5.3316-2.166c2.4575 0 4.5966 0.68238 5.1794 1.6522" fill="#8b726b"/>
   <path transform="matrix(.2487 0 0 .54701 385.19 397.09)" d="m413.53 426.85c0 1.1962-2.387 2.1659-5.3316 2.1659s-5.3316-0.96972-5.3316-2.1659 2.387-2.166 5.3316-2.166c2.4575 0 4.5966 0.68238 5.1794 1.6522" fill="#8b726b"/>
  </g>
 </g>
</svg>
